<?xml version="1.0" encoding="UTF-8"?>
<svg width="100%" height="100%" viewBox="0 0 1440 1744" fill="none" preserveAspectRatio="xMidYMid slice" xmlns="http://www.w3.org/2000/svg">
        <path opacity="0.8" d="M322.209 -238.744C322.209 -238.744 370.109 -32.3264 368.928 197.493C357.125 517.964 14.0702 924.535 62.985 1171.74C111.373 1416.24 937.437 1332.77 1195.37 1532.05C1464.49 1739.98 1387.79 1920.12 1374.53 2079.38C1347.62 2402.47 787.416 2657.33 571.788 2492.67C150.901 2171.27 10.2538 2028.31 -192.889 1921.89C-396.032 1815.47 -485.023 2009.21 -512.681 2080.47C-540.339 2151.74 -563.225 2599.76 -563.225 2599.76M368.453 -233.863C368.453 -233.863 410.831 -32.4383 410.144 194.363C399.253 506.009 76.5557 901.27 130.807 1146.71C144.796 1209.96 210.813 1250.65 304.862 1281.71C576.078 1371.34 1046.49 1373.26 1226.99 1518.43C1483.34 1722.82 1403.08 1899.46 1384.07 2055.51C1356.43 2282.17 1065.15 2474.19 823.485 2504.94C731.393 2516.67 647.149 2504.92 588.195 2462.72C352.624 2295.3 207.118 2181.45 88.324 2097.31C-4.06983 2031.85 -77.8856 1983.78 -163.134 1943.09C-311.18 1871.69 -394.76 1965.35 -438.252 2041.9C-451.918 2065.98 -461.034 2091.05 -467.326 2107.28C-493.679 2175.16 -511.484 2617.83 -511.484 2617.83M414.725 -228.994C414.725 -228.994 451.562 -32.5697 451.389 191.22C441.437 494.028 138.949 877.972 198.665 1121.64C213.754 1183.26 278.201 1222.96 369.071 1254.89C642.397 1350.96 1086.48 1361.57 1258.64 1504.79C1501.31 1706.68 1418.48 1878.64 1393.64 2031.63C1358.02 2250.8 1074.47 2436.81 836.588 2469.3C745.864 2481.71 663.186 2471.53 604.62 2432.73C370.655 2277.74 227.215 2175.22 109.883 2099.96C18.917 2041.6 -51.9764 1999.35 -133.371 1964.22C-275.213 1902.99 -353.599 1996.92 -394.915 2069.67C-407.911 2092.54 -415.99 2118.65 -421.98 2134.07C-447.002 2198.54 -459.733 2635.87 -459.733 2635.87M460.979 -224.132C460.979 -224.132 492.292 -32.7013 492.606 188.09C483.565 482.073 201.24 854.662 266.487 1096.61C282.657 1156.58 345.528 1195.4 433.253 1228.08C708.729 1330.73 1126.77 1349.52 1290.25 1491.19C1519.69 1690.02 1433.95 1857.71 1403.15 2007.77C1359.74 2219.3 1083.73 2399.46 849.635 2433.69C760.29 2446.8 679.107 2438.27 621.001 2402.79C388.303 2260.66 247.388 2169.1 131.398 2102.66C41.9334 2051.43 -26.0051 2014.83 -103.661 1985.42C-239.132 1934.08 -312.474 2028.58 -351.622 2097.5C-363.931 2119.17 -370.982 2146.28 -376.652 2160.89C-400.369 2221.98 -408.019 2653.95 -408.019 2653.95M507.242 -219.244C507.242 -219.244 533.014 -32.813 533.841 184.967C525.721 470.105 263.448 831.345 334.336 1071.57C351.541 1129.9 412.838 1167.92 497.462 1201.26C775.093 1310.68 1167.08 1337.4 1321.9 1477.55C1538.13 1673.28 1449.56 1836.62 1412.72 1983.89C1361.75 2187.66 1093.05 2362.08 862.729 2398.07C774.753 2411.86 695.046 2405.01 637.417 2372.81C405.922 2243.55 267.755 2162.98 152.949 2105.33C65.096 2061.22 0.00210074 2030.28 -73.888 2006.57C-202.96 1965.16 -271.312 2060.2 -308.284 2125.27C-319.906 2145.74 -325.948 2173.86 -331.307 2187.67C-353.692 2245.36 -356.288 2671.99 -356.288 2671.99M553.495 -214.382C553.495 -214.382 573.753 -32.9635 575.048 181.812C567.84 458.124 325.518 808.003 402.148 1046.51C420.361 1103.21 480.105 1140.54 561.625 1174.44C841.405 1290.78 1207.34 1325.27 1353.5 1463.92C1556.53 1656.48 1465.28 1815.43 1422.24 1960.02C1363.97 2155.88 1102.32 2324.71 875.786 2362.44C789.188 2376.93 710.948 2371.73 653.814 2342.83C423.495 2226.45 288.278 2156.89 174.472 2108.02C88.3512 2071.04 26.0191 2045.75 -44.1611 2027.74C-166.796 1996.26 -230.188 2091.81 -264.974 2153.05C-275.918 2172.3 -280.932 2201.47 -285.98 2214.45C-307.061 2268.75 -304.575 2690.02 -304.575 2690.02M599.758 -209.494C599.758 -209.494 614.475 -33.0755 616.284 178.689C610.006 446.182 387.487 784.693 469.979 1021.46C489.163 1076.52 547.337 1113.24 625.815 1147.61C907.704 1271.06 1247.63 1313.11 1385.13 1450.27C1574.97 1639.65 1481.16 1794.1 1431.79 1936.13C1366.49 2124 1111.63 2287.33 888.869 2326.79C803.64 2341.97 726.877 2338.44 670.212 2312.86C441.04 2209.35 309.023 2150.79 196.005 2110.68C111.77 2080.78 52.082 2061.22 -14.434 2048.9C-130.568 2027.36 -189.044 2123.42 -221.673 2180.86C-231.929 2198.91 -235.915 2229.08 -240.643 2241.25C-260.392 2292.15 -252.834 2708.08 -252.834 2708.08M646.012 -204.632C646.012 -204.632 655.205 -33.207 657.501 175.559C652.143 434.207 449.319 761.403 537.801 996.433C557.92 1049.89 614.535 1086.06 690.015 1120.81C973.981 1251.58 1287.94 1300.92 1416.76 1436.68C1593.41 1622.81 1480.1 1768.91 1441.33 1912.28C1391.37 2097.04 1120.91 2249.98 901.908 2291.2C818.058 2307.08 742.734 2305.22 686.592 2282.91C458.496 2192.32 329.969 2144.72 217.538 2113.39C135.372 2090.5 78.1645 2076.74 15.3028 2070.09C-94.2739 2058.51 -147.919 2155.08 -178.352 2208.67C-187.921 2225.52 -190.907 2256.71 -195.315 2268.08C-213.76 2315.58 -201.12 2726.16 -201.12 2726.16M692.284 -199.764C692.284 -199.764 695.954 -33.332 698.745 172.416C694.299 422.239 511.06 738.126 605.65 971.389C626.667 1023.22 681.726 1058.95 754.215 1094C1040.17 1232.3 1328.25 1288.7 1448.42 1423.06C1611.91 1605.89 1495.1 1746.26 1450.91 1888.43C1395.54 2066.5 1130.24 2212.63 915.02 2255.59C832.558 2272.15 758.646 2271.98 703.018 2252.97C475.952 2175.33 351.208 2138.52 239.099 2116.09C159.156 2100.1 104.347 2092.22 45.067 2091.26C-57.8525 2089.61 -106.757 2186.7 -135.024 2236.46C-143.905 2252.11 -145.863 2284.31 -149.951 2294.87C-167.073 2338.99 -149.37 2744.21 -149.37 2744.21M738.529 -194.882C738.529 -194.882 736.658 -33.4501 739.962 169.287C736.446 410.291 572.654 714.888 673.481 946.34C695.378 996.591 748.863 1031.9 818.406 1067.17C1106.27 1213.21 1368.58 1276.41 1480.05 1409.42C1630.41 1588.86 1510.73 1723.45 1460.46 1864.54C1399.37 2035.96 1139.54 2175.25 928.104 2219.95C847.002 2237.2 774.52 2238.72 719.425 2222.97C493.335 2158.32 372.68 2132.13 260.631 2118.75C183.08 2109.48 130.557 2107.65 74.8127 2112.43C-21.3406 2120.65 -65.5956 2218.32 -91.7036 2264.27C-99.916 2278.71 -100.828 2311.93 -104.623 2321.69C-120.431 2362.41 -97.6371 2762.29 -97.6371 2762.29M784.801 -190.014C784.801 -190.014 777.407 -33.575 781.206 166.144C778.611 398.303 634.13 691.721 741.33 921.296C764.052 969.947 815.993 1004.93 882.606 1040.37C1172.27 1194.4 1408.94 1264.09 1511.69 1395.8C1648.97 1571.8 1546.78 1708.47 1470.01 1840.7C1379.68 1996.28 1148.83 2137.91 941.18 2184.37C861.465 2202.31 790.379 2205.54 735.842 2193.04C510.675 2141.45 394.397 2125.59 282.183 2121.47C207.195 2118.72 156.867 2123.09 104.568 2133.63C15.2889 2151.62 -24.4428 2249.96 -48.365 2292.09C-55.8898 2305.33 -55.8016 2339.57 -59.2675 2348.5C-73.7532 2385.84 -45.8959 2780.35 -45.8959 2780.35M831.045 -185.132C831.045 -185.132 818.11 -33.6934 822.423 163.015C820.74 386.348 695.433 668.607 809.16 896.246C832.69 943.336 883.042 978.033 946.796 1013.54C1238.13 1175.8 1449.32 1251.7 1543.31 1382.18C1667.55 1554.64 1563.7 1687.12 1479.53 1816.83C1383.71 1964.48 1158.1 2100.54 954.237 2148.74C875.882 2167.37 806.208 2172.33 752.212 2163.07C527.941 2124.59 416.261 2118.66 303.687 2124.14C231.385 2127.65 183.174 2138.39 134.268 2154.8C51.9512 2182.42 16.6458 2281.6 -5.10056 2319.88C-11.9378 2331.93 -10.8221 2367.17 -13.9679 2375.29C-27.1404 2409.22 5.78971 2798.4 5.78971 2798.4M877.317 -180.264C877.317 -180.264 858.859 -33.8183 863.659 159.892C862.896 374.38 756.601 645.603 877.001 871.223C901.31 916.763 950.084 951.205 1011 986.737C1303.8 1157.53 1489.73 1239.27 1574.95 1368.56C1686.22 1537.4 1580.91 1665.91 1489.09 1792.96C1388.04 1932.81 1167.44 2063.16 967.331 2113.12C890.354 2132.46 822.067 2139.15 768.647 2133.11C545.219 2107.81 438.291 2111.37 325.257 2126.82C255.706 2136.34 209.552 2153.59 164.041 2175.96C88.718 2212.99 57.8347 2313.21 38.2556 2347.66C32.096 2358.48 34.2405 2394.78 31.3962 2402.08C19.5468 2432.63 57.5582 2816.45 57.5582 2816.45M923.57 -175.402C923.57 -175.402 899.571 -33.9559 904.884 156.743C905.052 362.412 817.632 622.664 944.84 846.153C969.894 890.177 1017.07 924.402 1075.19 959.907C1369.28 1139.5 1530.21 1226.74 1606.58 1354.92C1704.95 1520.06 1598.29 1644.83 1498.64 1769.08C1392.58 1901.32 1176.74 2025.78 980.414 2077.47C904.825 2097.5 837.907 2105.97 785.045 2103.13C562.435 2091.12 460.29 2103.61 346.808 2129.49C280.011 2144.72 235.908 2168.64 193.813 2197.12C125.443 2243.36 99.0049 2344.81 81.6029 2375.45C76.1309 2385.08 79.2844 2422.38 76.7788 2428.88C66.2426 2456.02 109.327 2834.5 109.327 2834.5M969.834 -170.514C969.834 -170.514 940.311 -34.0614 946.101 153.613C947.18 350.457 878.501 599.848 1012.66 821.123C1038.44 863.624 1084.01 897.697 1139.37 933.097C1434.51 1121.82 1570.75 1214.17 1638.2 1341.29C1723.78 1502.63 1615.86 1623.99 1508.18 1745.21C1397.29 1870.05 1186.03 1988.41 993.481 2041.87C919.252 2062.59 853.72 2072.85 801.452 2073.18C579.663 2074.55 482.178 2095.44 368.341 2132.2C304.237 2152.91 262.153 2183.65 223.542 2218.32C161.954 2273.64 140.122 2376.48 124.896 2403.28C120.111 2411.7 124.284 2450.03 122.08 2455.71C112.867 2479.47 161.014 2852.59 161.014 2852.59M1016.09 -165.652C1016.09 -165.652 981.05 -34.2122 987.327 150.464C989.327 338.463 939.235 577.143 1080.49 796.073C1106.96 837.084 1150.91 870.998 1203.56 906.268C1499.46 1104.46 1611.39 1201.51 1669.82 1327.67C1742.75 1485.14 1633.58 1603.41 1517.72 1721.34C1402.11 1839.02 1195.31 1951.05 1006.56 2006.24C933.714 2027.65 869.552 2039.73 817.85 2043.2C596.883 2058.04 503.779 2086.81 389.873 2134.86C328.319 2160.83 288.257 2198.55 253.277 2239.47C198.296 2303.77 181.255 2408.07 168.215 2431.04C164.118 2438.27 169.318 2477.61 167.415 2482.47C159.507 2502.84 212.735 2870.6 212.735 2870.6M1062.36 -160.783C1062.36 -160.783 1021.78 -34.3436 1028.56 147.341C1031.49 326.521 999.825 554.612 1148.34 771.03C1175.49 810.57 1217.79 844.384 1267.78 879.471C1564.13 1087.5 1652.19 1188.83 1701.48 1314.06C1761.88 1467.56 1651.48 1583.14 1527.28 1697.48C1407.01 1808.24 1204.62 1913.69 1019.65 1970.63C948.168 1992.72 885.413 2006.64 834.276 2013.25C614.143 2041.68 525.05 2077.86 411.433 2137.56C352.206 2168.67 314.27 2213.51 283.041 2260.64C234.475 2333.98 222.435 2439.7 211.562 2458.84C208.134 2464.86 214.361 2505.21 212.798 2509.27C206.221 2526.23 264.522 2888.66 264.522 2888.66M1108.6 -155.902C1108.6 -155.902 1062.5 -34.4555 1069.78 144.211C1073.62 314.566 1060.25 532.225 1216.16 746C1243.96 784.101 1284.6 817.789 1331.96 852.661C1628.37 1070.93 1693.1 1176.07 1733.1 1300.43C1781.17 1449.93 1669.4 1563.15 1536.83 1673.61C1411.9 1777.73 1213.91 1876.33 1032.72 1935.02C962.621 1957.8 901.237 1973.59 850.665 1983.29C631.423 2025.37 545.846 2068.68 432.957 2140.24C375.843 2176.45 340.137 2228.5 312.778 2281.83C270.454 2364.29 263.561 2471.36 254.873 2486.67C252.133 2491.49 259.379 2532.86 258.117 2536.11C252.845 2549.69 316.228 2906.76 316.228 2906.76M1154.88 -151.033C1154.88 -151.033 1103.23 -34.5868 1111.02 141.069C1115.79 302.578 1120.57 510.006 1284 720.93C1312.43 757.613 1351.37 791.181 1396.16 825.812C1692.19 1054.73 1734.22 1163.25 1764.74 1286.77C1800.67 1432.21 1687.35 1543.43 1546.38 1649.71C1416.76 1747.41 1223.23 1838.93 1045.81 1899.36C977.074 1922.84 917.125 1940.49 867.09 1953.3C648.798 2009.14 566.234 2059.35 454.508 2142.91C399.278 2184.24 365.97 2243.57 342.533 2302.98C306.352 2394.69 304.713 2502.95 298.192 2514.43C296.148 2518.04 304.413 2560.44 303.471 2562.87C299.531 2573.05 367.968 2924.78 367.968 2924.78M1201.12 -146.152C1201.12 -146.152 1143.96 -34.6988 1152.24 137.939C1157.91 290.623 1180.72 487.975 1351.83 695.9C1380.87 731.203 1418.08 764.664 1460.33 799.021C1755.51 1039.03 1775.51 1150.49 1796.34 1273.19C1820.36 1414.6 1705.28 1524.11 1555.91 1625.88C1421.51 1717.45 1232.51 1801.6 1058.87 1863.77C991.519 1887.93 932.997 1907.48 883.47 1923.36C666.211 1993.01 586.118 2050.1 476.041 2145.62C422.457 2192.13 391.767 2258.72 372.261 2324.19C342.161 2425.24 345.857 2534.61 341.504 2542.26C340.147 2544.67 349.413 2588.09 348.791 2589.72C346.155 2596.51 419.692 2942.88 419.692 2942.88M1247.39 -141.283C1247.39 -141.283 1184.69 -34.8301 1193.48 134.796C1200.1 278.642 1240.75 466.125 1419.68 670.837C1449.34 704.779 1484.78 738.121 1524.55 772.179C1818.31 1023.78 1817.07 1137.7 1828 1259.53C1840.33 1396.98 1723.19 1505.01 1565.47 1601.97C1426.16 1687.62 1241.81 1764.2 1071.95 1828.13C1005.98 1852.99 948.904 1874.43 899.895 1893.36C683.745 1976.9 605.699 2040.9 497.601 2148.27C445.472 2200.04 417.556 2273.89 402.024 2345.32C378 2455.83 387.017 2566.19 384.85 2570.02C384.162 2571.22 394.474 2615.65 394.154 2616.46C392.849 2619.85 471.44 2960.88 471.44 2960.88M1293.66 -136.415C1293.66 -136.415 1036.46 246.037 1588.75 745.376C1880.43 1009.08 1858.86 1125.07 1859.64 1245.91C1861.25 1495.79 1442.06 1651.33 1085.04 1792.51C734.387 1931.18 648.871 2005.05 519.143 2150.96C389.415 2296.88 428.17 2597.83 428.17 2597.83L523.182 2978.94" stroke="rgba(255,255,255,0.07)" stroke-width="2.5" stroke-miterlimit="10"/>
      </svg>
